<svg height='100px' width='100px'  fill="#000000" xmlns="http://www.w3.org/2000/svg" viewBox="0 0 32 32" x="0px" y="0px"><title>shop</title><g data-name="Layer 22"><path d="M26,10.87a2.72,2.72,0,0,0-2.64-2.79H21.85v0a5.85,5.85,0,0,0-11.7,0v0H8.64A2.71,2.71,0,0,0,6,10.82L5,28.74a1,1,0,0,0,.37.83,1,1,0,0,0,.89.19l3.13-.85.11,0a17.69,17.69,0,0,1,13,0l.11,0,3.13.85a1.09,1.09,0,0,0,.26,0,1,1,0,0,0,1-1.06ZM12.15,8.05a3.85,3.85,0,0,1,7.7,0l-7.7,0Zm11,19A19.67,19.67,0,0,0,8.82,27l-1.74.47L8,10.87a.73.73,0,0,1,.64-.79H23.36c.35,0,.64.36.64.85l.92,16.54Z"></path></g></svg>